HIERARCHY
ROOT Hips
{
	OFFSET -0.001795 -0.223333 0.028219
	CHANNELS 6 Xposition Yposition Zposition Zrotation Yrotation Xrotation 
	JOINT LeftUpLeg
	{
		OFFSET 0.069520 -0.091406 -0.006815
		CHANNELS 3 Zrotation Yrotation Xrotation
		JOINT LeftLeg
		{
			OFFSET 0.034277 -0.375199 -0.004496
			CHANNELS 3 Zrotation Yrotation Xrotation
			JOINT LeftFoot
			{
				OFFSET -0.013596 -0.397961 -0.043693
				CHANNELS 3 Zrotation Yrotation Xrotation
				JOINT LeftToe
				{
					OFFSET 0.026358 -0.055791 0.119288
					CHANNELS 3 Zrotation Yrotation Xrotation
					End Site
					{
						OFFSET 0.000000 0.000000 0.000000
					}
				}
			}
		}
	}
	JOINT RightUpLeg
	{
		OFFSET -0.067670 -0.090522 -0.004320
		CHANNELS 3 Zrotation Yrotation Xrotation
		JOINT RightLeg
		{
			OFFSET -0.038290 -0.382569 -0.008850
			CHANNELS 3 Zrotation Yrotation Xrotation
			JOINT RightFoot
			{
				OFFSET 0.015774 -0.398415 -0.042312
				CHANNELS 3 Zrotation Yrotation Xrotation
				JOINT RightToe
				{
					OFFSET -0.025372 -0.048144 0.123348
					CHANNELS 3 Zrotation Yrotation Xrotation
					End Site
					{
						OFFSET 0.000000 0.000000 0.000000
					}
				}
			}
		}
	}
	JOINT Spine
	{
		OFFSET -0.002533 0.108963 -0.026696
		CHANNELS 3 Zrotation Yrotation Xrotation
		JOINT Spine1
		{
			OFFSET 0.005487 0.135180 0.001092
			CHANNELS 3 Zrotation Yrotation Xrotation
			JOINT Spine2
			{
				OFFSET 0.001457 0.052922 0.025425
				CHANNELS 3 Zrotation Yrotation Xrotation
				JOINT Neck
				{
					OFFSET -0.002778 0.213870 -0.042857
					CHANNELS 3 Zrotation Yrotation Xrotation
					JOINT Head
					{
						OFFSET 0.005152 0.064970 0.051349
						CHANNELS 3 Zrotation Yrotation Xrotation
						End Site
						{
							OFFSET 0.000000 0.000000 0.000000
						}
					}
				}
				JOINT LeftShoulder
				{
					OFFSET 0.078845 0.121749 -0.034090
					CHANNELS 3 Zrotation Yrotation Xrotation
					JOINT LeftArm
					{
						OFFSET 0.090977 0.030469 -0.008868
						CHANNELS 3 Zrotation Yrotation Xrotation
						JOINT LeftForeArm
						{
							OFFSET 0.259612 -0.012772 -0.027456
							CHANNELS 3 Zrotation Yrotation Xrotation
							JOINT LeftHand
							{
								OFFSET 0.249234 0.008986 -0.001171
								CHANNELS 3 Zrotation Yrotation Xrotation
								End Site
								{
									OFFSET 0.000000 0.000000 0.000000
								}
							}
						}
					}
				}
				JOINT RightShoulder
				{
					OFFSET -0.081759 0.118833 -0.038615
					CHANNELS 3 Zrotation Yrotation Xrotation
					JOINT RightArm
					{
						OFFSET -0.096012 0.032551 -0.009143
						CHANNELS 3 Zrotation Yrotation Xrotation
						JOINT RightForeArm
						{
							OFFSET -0.253742 -0.013329 -0.021401
							CHANNELS 3 Zrotation Yrotation Xrotation
							JOINT RightHand
							{
								OFFSET -0.255298 0.007772 -0.005559
								CHANNELS 3 Zrotation Yrotation Xrotation
								End Site
								{
									OFFSET 0.000000 0.000000 0.000000
								}
							}
						}
					}
				}
			}
		}
	}
}
MOTION
Frames: 9
Frame Time: 0.050000
0.000000 0.947797 0.000000 -1.362881 1.107200 5.823877 4.818011 -0.273133 -2.707799 1.196650 0.104010 -5.193286 1.328023 6.278599 9.839695 0.000000 0.000000 0.000000 -3.554586 0.518496 -5.612737 -1.361828 0.130334 -0.261000 -1.133578 -5.834253 8.069776 0.000000 0.000000 0.000000 2.374079 0.129807 -3.258001 -0.112005 0.131625 -2.747711 -0.715772 0.549250 3.873478 2.714595 -0.655184 -13.148853 0.000000 0.000000 0.000000 -17.003696 -2.606782 -0.599010 -53.396177 -8.830331 -2.307723 -13.257889 -19.520383 2.944027 0.000000 0.000000 0.000000 16.302085 2.201668 -0.122278 56.137345 10.089156 -0.630054 10.586002 18.955994 2.222636 0.000000 0.000000 0.000000 
0.000171 0.946601 0.001038 -1.495231 -0.045889 6.338382 4.099775 -0.259195 -2.583090 2.473296 0.048046 -5.608491 1.612604 6.391474 8.930860 0.000000 0.000000 0.000000 -3.741708 0.554000 -5.990244 -1.157680 0.101048 -0.369405 -0.475642 -4.545779 7.981568 0.000000 0.000000 0.000000 2.752015 0.168410 -3.884284 -1.138274 0.581888 -3.097954 0.078996 0.827735 3.668555 2.403347 -0.489675 -13.278873 0.000000 0.000000 0.000000 -17.404266 -1.639490 -1.018361 -53.947092 -8.748189 -2.353649 -13.021850 -18.965663 2.837660 0.000000 0.000000 0.000000 15.345472 1.674158 -0.452310 57.688603 9.759693 -0.729399 10.771713 19.109062 2.250732 0.000000 0.000000 0.000000 
0.000211 0.946558 0.002114 -1.191623 0.734356 6.275511 4.009292 -0.263011 -2.584140 2.435615 0.023621 -5.086815 1.207062 5.612813 8.450779 0.000000 0.000000 0.000000 -4.038566 0.542193 -5.976344 -1.319473 0.123370 -0.289120 -1.039232 -5.612901 7.877047 0.000000 0.000000 0.000000 2.457139 0.154092 -3.700542 -0.509863 0.353869 -4.871242 -0.657060 0.578460 4.533434 2.555709 -0.676328 -12.213530 0.000000 0.000000 0.000000 -16.918268 -2.068558 -0.801663 -54.024723 -8.389021 -2.598595 -13.528510 -17.754127 2.722863 0.000000 0.000000 0.000000 16.866622 2.219399 -0.173169 56.470578 9.370615 -1.030903 10.156001 19.313584 2.203534 0.000000 0.000000 0.000000 
0.000161 0.946148 0.003499 -1.405327 0.488247 6.653669 4.085111 -0.280022 -2.837675 2.593781 0.012723 -5.069980 1.292859 5.697009 8.312959 0.000000 0.000000 0.000000 -3.869103 0.594120 -6.631791 -1.266167 0.130459 -0.025255 -0.980620 -5.525339 7.910445 0.000000 0.000000 0.000000 2.433521 0.198534 -4.455664 -1.002297 0.549175 -4.410783 0.540032 -0.431086 3.549255 1.622434 -0.302501 -10.835344 0.000000 0.000000 0.000000 -16.990435 -0.723525 -1.212718 -54.664504 -8.288151 -2.604515 -13.263816 -16.798056 2.570014 0.000000 0.000000 0.000000 15.612313 2.402697 -0.333659 57.145689 8.952510 -1.099121 10.798312 19.011802 2.201557 0.000000 0.000000 0.000000 
0.000001 0.946363 0.005002 -1.188216 1.195030 6.536460 3.992816 -0.271280 -2.632052 2.529880 0.035266 -5.369657 0.941746 5.290855 8.768998 0.000000 0.000000 0.000000 -4.177356 0.547628 -6.103134 -1.262177 0.111460 -0.427245 -1.264862 -6.157026 8.273494 0.000000 0.000000 0.000000 2.092073 0.217007 -4.850882 -0.584820 0.381379 -4.450866 0.334530 -0.903686 3.458095 1.263473 -0.119841 -10.216940 0.000000 0.000000 0.000000 -17.204744 -0.403415 -1.393244 -54.414426 -8.224715 -2.619874 -13.770932 -16.053661 2.522715 0.000000 0.000000 0.000000 15.547738 1.841232 -0.620498 57.094590 8.664792 -1.232445 11.093766 19.131327 2.259533 0.000000 0.000000 0.000000 
-0.000073 0.946383 0.006249 -1.193566 1.251496 6.721375 3.949178 -0.281023 -2.773772 2.733542 0.019534 -5.293109 1.082046 5.551934 8.806636 0.000000 0.000000 0.000000 -4.258199 0.559641 -6.292481 -1.289312 0.117455 -0.364766 -1.262517 -6.244073 8.602603 0.000000 0.000000 0.000000 1.853813 0.238765 -5.308527 -0.599002 0.384240 -4.306633 0.775457 -1.102248 3.108692 1.100911 -0.072656 -9.648320 0.000000 0.000000 0.000000 -17.443415 0.189817 -1.676464 -54.418940 -7.977986 -2.704020 -13.595218 -15.939222 2.484182 0.000000 0.000000 0.000000 15.071728 1.824242 -0.649739 57.420680 8.485123 -1.288602 11.074627 18.962411 2.222055 0.000000 0.000000 0.000000 
-0.000122 0.946176 0.006911 -1.096473 1.678342 6.786655 3.930221 -0.291424 -2.903126 2.791162 0.026369 -5.444184 0.813097 5.305612 9.362041 0.000000 0.000000 0.000000 -4.410813 0.542115 -6.098949 -1.208977 0.100664 -0.555464 -1.360901 -6.405264 8.621985 0.000000 0.000000 0.000000 1.697199 0.241746 -5.457336 -0.399084 0.304070 -4.299545 0.546925 -1.495197 2.879102 1.184739 -0.091146 -10.191953 0.000000 0.000000 0.000000 -17.272042 0.509138 -1.806485 -54.289831 -7.522841 -2.883812 -14.170455 -16.282027 2.625395 0.000000 0.000000 0.000000 15.089621 1.816383 -0.684949 57.428903 8.006157 -1.494685 11.275506 19.134852 2.267533 0.000000 0.000000 0.000000 
-0.000138 0.945943 0.007018 -1.146881 1.660333 7.001577 3.774831 -0.310756 -3.230459 3.024966 0.015805 -5.484694 0.903486 5.399894 9.175890 0.000000 0.000000 0.000000 -4.515193 0.550586 -6.225488 -0.994986 0.074054 -0.656342 -1.402621 -6.481066 8.583227 0.000000 0.000000 0.000000 1.659984 0.248373 -5.613247 -0.495350 0.347653 -4.422064 0.722531 -1.423394 2.825963 1.174855 -0.106768 -9.890427 0.000000 0.000000 0.000000 -17.500580 0.603569 -1.884936 -54.147308 -7.314082 -2.966408 -14.249988 -16.369246 2.651006 0.000000 0.000000 0.000000 15.346157 1.900097 -0.663529 57.244329 7.768077 -1.597716 11.365737 18.668630 2.218468 0.000000 0.000000 0.000000 
-0.000178 0.945609 0.006950 -1.201516 1.788355 7.148929 3.827080 -0.324954 -3.438191 3.004580 0.016119 -5.461833 0.915974 5.385993 9.028398 0.000000 0.000000 0.000000 -4.490882 0.554515 -6.273660 -0.870927 0.049909 -0.909739 -1.487921 -6.606679 8.453456 0.000000 0.000000 0.000000 1.552440 0.252859 -5.759365 -0.366681 0.291766 -4.322436 0.677352 -1.397000 2.571001 1.171640 -0.107481 -9.729554 0.000000 0.000000 0.000000 -17.321125 0.436680 -1.811248 -54.151515 -7.444495 -2.877817 -14.468942 -16.319084 2.668324 0.000000 0.000000 0.000000 15.626272 2.073236 -0.586482 56.955287 7.505344 -1.688027 11.297407 18.532565 2.191685 0.000000 0.000000 0.000000 
